<?xml version="1.0" encoding="UTF-8" standalone="no"?>
<!-- Created with Inkscape (http://www.inkscape.org/) -->

<svg
   width="54.83593mm"
   height="57.812492mm"
   viewBox="0 0 54.83593 57.812492"
   version="1.1"
   id="svg1"
   inkscape:version="1.4 (86a8ad7, 2024-10-11)"
   sodipodi:docname="logo.svg"
   xmlns:inkscape="http://www.inkscape.org/namespaces/inkscape"
   xmlns:sodipodi="http://sodipodi.sourceforge.net/DTD/sodipodi-0.dtd"
   xmlns="http://www.w3.org/2000/svg"
   xmlns:svg="http://www.w3.org/2000/svg">
  <sodipodi:namedview
     id="namedview1"
     pagecolor="#ffffff"
     bordercolor="#000000"
     borderopacity="0.25"
     inkscape:showpageshadow="2"
     inkscape:pageopacity="0.0"
     inkscape:pagecheckerboard="0"
     inkscape:deskcolor="#d1d1d1"
     inkscape:document-units="mm"
     inkscape:zoom="4"
     inkscape:cx="158.875"
     inkscape:cy="108.75"
     inkscape:window-width="2880"
     inkscape:window-height="1514"
     inkscape:window-x="498"
     inkscape:window-y="-11"
     inkscape:window-maximized="1"
     inkscape:current-layer="layer2" />
  <defs
     id="defs1">
    <rect
       x="169"
       y="352"
       width="259"
       height="218"
       id="rect3" />
    <rect
       x="123.21336"
       y="179.25157"
       width="56.922096"
       height="49.143921"
       id="rect2" />
  </defs>
  <g
     inkscape:groupmode="layer"
     id="layer2"
     inkscape:label="Capa 2"
     transform="translate(-50.916169,-50.931869)">
    <path
       d="m 79.745934,50.931869 c -15.913472,0 -28.829765,12.953021 -28.829765,28.906246 2e-6,15.953223 12.916294,28.906245 28.829765,28.906245 11.455257,0 21.356886,-6.71285 26.006166,-16.42432 h -1.89756 c -4.50935,8.74761 -13.605211,14.72468 -24.108606,14.72468 -14.992335,0 -27.128574,-12.169501 -27.128577,-27.206605 1e-6,-15.037106 12.136241,-27.207125 27.128577,-27.207125 10.440739,-10e-7 19.491696,5.905694 24.028506,14.568103 h 1.90066 C 100.99457,57.57251 91.139244,50.931867 79.745934,50.931869 Z"
       style="fill:#334bcb;fill-opacity:1;stroke:none;stroke-linejoin:round;stroke-opacity:1"
       id="path28" />
    <path
       d="m 79.818082,52.506003 c -15.02831,-7.7e-5 -27.23437,12.239989 -27.23452,27.30479 0,0.94156 0.0475,1.87179 0.14056,2.78898 0.0931,0.91719 0.23187,1.82117 0.41341,2.70939 0.36311,1.77644 0.89846,3.49022 1.58802,5.12321 0.17233,0.4081 0.35442,0.81203 0.5457,1.20974 0.38268,0.79555 0.80271,1.56977 1.25781,2.32027 2.27586,3.75318 5.42906,6.914357 9.17257,9.196347 0.74869,0.4564 1.52092,0.87766 2.31458,1.26142 3.57148,1.72691 7.57509,2.69546 11.80187,2.69544 0.5885,-3e-5 1.17293,-0.0254 1.75493,-0.063 0.14031,-0.009 0.27988,-0.0209 0.41961,-0.032 0.50124,-0.0402 0.99989,-0.0922 1.495,-0.15968 0.0794,-0.0108 0.15956,-0.0191 0.23874,-0.0305 0.60183,-0.0875 1.19913,-0.19303 1.79008,-0.31988 0.0182,-0.004 0.0361,-0.008 0.0543,-0.0124 0.57018,-0.12362 1.13396,-0.26755 1.6924,-0.42685 0.0608,-0.0173 0.12181,-0.0339 0.18242,-0.0517 1.14778,-0.33611 2.26858,-0.74741 3.35587,-1.22835 0.0758,-0.0336 0.15091,-0.0686 0.22634,-0.10283 0.47913,-0.21719 0.95124,-0.4482 1.41645,-0.69247 0.064,-0.0337 0.12953,-0.065 0.19327,-0.0992 0.49223,-0.26349 0.97507,-0.54355 1.45004,-0.83665 0.12546,-0.0776 0.24797,-0.15964 0.37207,-0.23926 0.34121,-0.21828 0.67692,-0.44515 1.00821,-0.67851 0.15911,-0.11238 0.31883,-0.22383 0.47542,-0.33951 0.40502,-0.29848 0.80375,-0.60619 1.19218,-0.92708 0.16876,-0.13969 0.33077,-0.28734 0.49609,-0.43098 0.23556,-0.20435 0.46891,-0.41112 0.69763,-0.623737 0.19674,-0.18308 0.39112,-0.36831 0.58239,-0.55707 0.21313,-0.21021 0.42038,-0.42688 0.62684,-0.64441 0.2618,-0.27583 0.518188,-0.55676 0.768428,-0.84336 0.22189,-0.25432 0.44186,-0.51043 0.65474,-0.77359 0.15398,-0.19008 0.30374,-0.38349 0.45268,-0.57774 0.22135,-0.28925 0.43716,-0.58359 0.64751,-0.88264 0.10311,-0.14621 0.21027,-0.28939 0.31058,-0.4377 0.30015,-0.44512 0.58677,-0.90151 0.86196,-1.36684 0.0757,-0.12762 0.14798,-0.25759 0.22169,-0.38654 0.19114,-0.33557 0.37102,-0.67932 0.5488,-1.02474 h -2.57297 c -4.027978,6.98862 -11.324748,11.831567 -19.805508,12.439547 -0.0874,0.007 -0.17439,0.0146 -0.26199,0.0202 -0.51186,0.0313 -1.02637,0.0522 -1.54616,0.0522 -13.79485,7e-5 -24.95727,-11.189267 -24.95714,-25.027417 3e-5,-2.59436 0.39236,-5.0956 1.12087,-7.4476 0.0613,-0.1978 0.13142,-0.3914 0.1974,-0.58705 0.24516,-0.72692 0.52229,-1.4386 0.83044,-2.133719 0.2664,-0.600946 0.54931,-1.193065 0.86041,-1.76785 2.31371,-4.274783 5.83407,-7.793964 10.10274,-10.103776 0.62483,-0.338089 1.26685,-0.647984 1.92237,-0.93276 3.03982,-1.320595 6.39221,-2.056191 9.91877,-2.056722 h 0.004 c 0.54755,0 1.08908,0.02418 1.6278,0.05891 0.006,3.84e-4 0.011,6.46e-4 0.0165,10e-4 8.51304,0.554462 15.85097,5.375752 19.916098,12.359969 h 2.52336 C 99.545082,58.816583 91.194562,53.312855 81.862262,52.590827 c -0.0727,-0.0054 -0.14521,-0.01168 -0.21808,-0.01654 -0.60461,-0.04188 -1.21298,-0.06695 -1.82469,-0.06821 a 1.1383089,1.1383089 0 0 0 -0.002,0 z"
       style="fill:#e0e0e0;fill-opacity:1;stroke-linejoin:round"
       id="path21" />
    <path
       id="rect10"
       style="fill:#e0e0e0;fill-opacity:1;stroke-width:1.72991"
       d="m 64.866684,64.635597 h 2.5 V 94.85042 h -2.5 z" />
    <path
       id="rect10-8"
       style="fill:#e0e0e0;fill-opacity:1;stroke:none;stroke-width:1.85985"
       d="m 101.63885,64.696571 v 2.5 H 66.71419 v -2.5 z" />
    <path
       id="rect10-8-1"
       style="fill:#e0e0e0;fill-opacity:1;stroke-width:1.96856"
       d="m 102.22794,92.319729 v 2.5 H 63.10137 v -2.5 z" />
  </g>
  <g
     inkscape:label="Capa 1"
     inkscape:groupmode="layer"
     id="layer1"
     transform="translate(-50.916169,-50.931869)">
    <text
       xml:space="preserve"
       transform="scale(0.26458333)"
       id="text2"
       style="text-align:start;writing-mode:lr-tb;direction:ltr;white-space:pre;shape-inside:url(#rect2);display:inline;fill:#000000" />
    <g
       id="path7"
       style="fill:#334bcb;fill-opacity:1">
      <path
         style="fill:#334bcb;fill-opacity:1"
         d="m 64.110505,98.362907 v -37.08663 a 24.4676,24.4676 0 0 0 -8.52868,18.53169 24.4676,24.4676 0 0 0 8.52868,18.55494 z"
         id="path22" />
      <path
         style="fill:#334bcb;fill-opacity:1"
         d="m 64.886719,59.585937 -1.28125,1.101563 c -5.576467,4.787959 -8.791134,11.769213 -8.800782,19.119141 v 0.002 c 0.0027,7.358305 3.217968,14.34916 8.800782,19.142578 l 1.28125,1.101561 z m -1.552735,3.648438 v 33.169922 c -4.383539,-4.416923 -6.974293,-10.322035 -6.976562,-16.595703 0.0082,-6.26584 2.598419,-12.162777 6.976562,-16.574219 z"
         id="path23" />
    </g>
    <g
       id="path7-1"
       style="fill:#334bcb;fill-opacity:1">
      <path
         style="fill:#334bcb;fill-opacity:1"
         d="M 98.135328,95.62078 H 61.41278 a 24.227397,24.951451 0 0 0 18.349763,8.69734 24.227397,24.951451 0 0 0 18.372785,-8.69734 z"
         id="path24" />
      <path
         style="fill:#334bcb;fill-opacity:1"
         d="m 59.746094,94.839844 1.066406,1.28125 c 4.739894,5.685476 11.661355,8.966706 18.949219,8.976566 h 0.002 c 7.296171,-0.003 14.225404,-3.28462 18.970703,-8.976566 l 1.066406,-1.28125 z m 3.589843,1.560547 h 32.875 c -4.375626,4.488669 -10.231074,7.133869 -16.447265,7.136719 -6.209333,-0.008 -12.057032,-2.65286 -16.427735,-7.136719 z"
         id="path25" />
    </g>
    <g
       id="path7-1-7"
       style="fill:#334bcb;fill-opacity:1">
      <path
         style="fill:#334bcb;fill-opacity:1"
         d="M 98.283992,63.915644 H 61.561441 a 24.227397,24.951451 0 0 1 18.349761,-8.697339 24.227397,24.951451 0 0 1 18.37279,8.697339 z"
         id="path26" />
      <path
         style="fill:#334bcb;fill-opacity:1"
         d="m 79.910156,54.4375 c -7.287863,0.0099 -14.207372,3.293044 -18.947265,8.978516 l -1.06836,1.279296 h 40.056641 l -1.06836,-1.279296 C 94.137512,57.724071 87.208282,54.440217 79.912109,54.4375 Z m 0,1.560547 c 6.216156,0.0023 12.073282,2.648584 16.449219,7.136719 H 63.486328 c 4.370056,-4.482148 10.216128,-7.127792 16.423828,-7.136719 z"
         id="path27" />
    </g>
  </g>
</svg>
