<?xml version="1.0" encoding="UTF-8" standalone="no"?>
<!-- Created with Inkscape (http://www.inkscape.org/) -->

<svg
   width="114.40001mm"
   height="106.08715mm"
   viewBox="0 0 114.40001 106.08715"
   version="1.1"
   id="svg1"
   xml:space="preserve"
   sodipodi:docname="vite.svg"
   inkscape:version="1.4 (86a8ad7, 2024-10-11)"
   xmlns:inkscape="http://www.inkscape.org/namespaces/inkscape"
   xmlns:sodipodi="http://sodipodi.sourceforge.net/DTD/sodipodi-0.dtd"
   xmlns="http://www.w3.org/2000/svg"
   xmlns:svg="http://www.w3.org/2000/svg"><sodipodi:namedview
     id="namedview1"
     pagecolor="#000000"
     bordercolor="#000000"
     borderopacity="0.25"
     inkscape:showpageshadow="2"
     inkscape:pageopacity="0.0"
     inkscape:pagecheckerboard="0"
     inkscape:deskcolor="#d1d1d1"
     inkscape:document-units="mm"
     showgrid="true"
     inkscape:zoom="2"
     inkscape:cx="287"
     inkscape:cy="279.5"
     inkscape:window-width="2560"
     inkscape:window-height="1494"
     inkscape:window-x="-11"
     inkscape:window-y="-11"
     inkscape:window-maximized="1"
     inkscape:current-layer="layer1"><inkscape:grid
       id="grid1"
       units="mm"
       originx="-73.239599"
       originy="-49.928564"
       spacingx="0.99999998"
       spacingy="1"
       empcolor="#0099e5"
       empopacity="0.30196078"
       color="#0099e5"
       opacity="0.14901961"
       empspacing="5"
       enabled="true"
       visible="true" /></sodipodi:namedview><defs
     id="defs1"><inkscape:path-effect
       effect="bspline"
       id="path-effect20"
       is_visible="true"
       lpeversion="1.3"
       weight="33.333333"
       steps="2"
       helper_size="0"
       apply_no_weight="true"
       apply_with_weight="true"
       only_selected="false"
       uniform="false" /><inkscape:path-effect
       effect="bspline"
       id="path-effect18"
       is_visible="true"
       lpeversion="1.3"
       weight="33.333333"
       steps="2"
       helper_size="0"
       apply_no_weight="true"
       apply_with_weight="true"
       only_selected="false"
       uniform="false" /><inkscape:path-effect
       effect="bspline"
       id="path-effect17"
       is_visible="true"
       lpeversion="1.3"
       weight="33.333333"
       steps="2"
       helper_size="0"
       apply_no_weight="true"
       apply_with_weight="true"
       only_selected="false"
       uniform="false" /><inkscape:path-effect
       effect="bspline"
       id="path-effect16"
       is_visible="true"
       lpeversion="1.3"
       weight="33.333333"
       steps="2"
       helper_size="0"
       apply_no_weight="true"
       apply_with_weight="true"
       only_selected="false"
       uniform="false" /><inkscape:path-effect
       effect="bspline"
       id="path-effect15"
       is_visible="true"
       lpeversion="1.3"
       weight="33.333333"
       steps="2"
       helper_size="0"
       apply_no_weight="true"
       apply_with_weight="true"
       only_selected="false"
       uniform="false" /><inkscape:path-effect
       effect="bspline"
       id="path-effect14"
       is_visible="true"
       lpeversion="1.3"
       weight="33.333333"
       steps="2"
       helper_size="0"
       apply_no_weight="true"
       apply_with_weight="true"
       only_selected="false"
       uniform="false" /><inkscape:path-effect
       effect="bspline"
       id="path-effect13"
       is_visible="true"
       lpeversion="1.3"
       weight="33.333333"
       steps="2"
       helper_size="0"
       apply_no_weight="true"
       apply_with_weight="true"
       only_selected="false"
       uniform="false" /></defs><g
     inkscape:label="Capa 1"
     inkscape:groupmode="layer"
     id="layer1"
     transform="translate(-73.239601,-49.928562)"><ellipse
       style="fill:#000000;fill-opacity:1;stroke:#000000;stroke-width:0.357972;stroke-linejoin:round;stroke-miterlimit:0;paint-order:fill markers stroke"
       id="path1"
       cx="130.43961"
       cy="102.97214"
       rx="57.021019"
       ry="52.86459" /><path
       d="m 100.33858,123.2731 c -0.984649,0 -1.777154,0.7925 -1.777154,1.77715 v 6.40684 l 14.951544,14.43788 h 42.32455 c 0.98464,0 1.77715,-0.7925 1.77715,-1.77715 v -19.06757 c 0,-0.98465 -0.79251,-1.77715 -1.77715,-1.77715 z"
       style="fill:#cfcfcf;fill-opacity:1;stroke-width:11.8336"
       id="path43706" /><path
       d="m 127.27488,62.452002 c -0.90589,0 -1.635,0.793022 -1.635,1.777669 v 19.067053 c 0,0.984648 0.72911,1.777153 1.635,1.777153 H 155.958 c 0.9059,0 1.63548,-0.792505 1.63548,-1.777153 V 64.229671 c 0,-0.984647 -0.72958,-1.777669 -1.63548,-1.777669 z"
       style="fill:#cfcfcf;fill-opacity:1;stroke-width:8.70471"
       id="path43703" /><path
       d="M 112.57452,62.452002 98.561426,75.377209 v 41.784671 c 0,0.94053 0.792505,1.69753 1.777154,1.69753 h 19.06757 c 0.98465,0 1.77715,-0.757 1.77715,-1.69753 V 64.150024 c 0,-0.940531 -0.7925,-1.698022 -1.77715,-1.698022 z"
       style="fill:#cfcfcf;fill-opacity:1;stroke-width:11.5655"
       id="path43702" /><path
       d="m 166.42291,96.308334 a 6.8791666,5.4239583 0 0 0 -6.87916,5.423956 6.8791666,5.4239583 0 0 0 6.87916,5.42396 6.8791666,5.4239583 0 0 0 6.87917,-5.42396 6.8791666,5.4239583 0 0 0 -6.87917,-5.423956 z"
       style="fill:#005e0f;fill-opacity:1;stroke-width:3.37856"
       id="path43705" /><path
       d="m 87.047915,96.308334 a 6.8791666,5.4239583 0 0 0 -6.879166,5.423956 6.8791666,5.4239583 0 0 0 6.879166,5.42396 6.8791666,5.4239583 0 0 0 6.879167,-5.42396 6.8791666,5.4239583 0 0 0 -6.879167,-5.423956 z"
       style="fill:#005e0f;fill-opacity:1;stroke-width:3.37856"
       id="path43704" /></g></svg>
